<svg height="460pt" viewBox="-2 0 460 460.16671" width="460pt" xmlns="http://www.w3.org/2000/svg"><path d="m161.332031 38.832031c37.785157-31.585937 93.136719-30.257812 129.363281 3.105469l10.972657-11.640625c-42.15625-38.953125-106.6875-40.523437-150.695313-3.671875zm0 0"/><path d="m224.183594 48c15.765625-.125 30.984375 5.808594 42.503906 16.578125l10.988281-11.640625c-29.089843-26.890625-73.628906-27.980469-104-2.542969l10.363281 12.199219c11.230469-9.460938 25.457032-14.632812 40.144532-14.59375zm0 0"/><path d="m253.667969 75.554688c-16.007813-14.871094-40.597657-15.449219-57.285157-1.34375l10.398438 12.191406c10.574219-8.539063 25.765625-8.199219 35.953125.800781zm0 0"/><path d="m216.183594 217.378906h16v16h-16zm0 0"/><path d="m104.183594 329.378906h16v16h-16zm0 0"/><path d="m130.253906 393.449219c-.710937-.070313-1.417968-.070313-2.121094-.070313-17.5625-.019531-31.894531 14.050782-32.203124 31.613282-.304688 17.558593 13.527343 32.121093 31.082031 32.71875 17.550781.597656 32.339843-12.996094 33.226562-30.535157.882813-17.542969-12.460937-32.550781-29.984375-33.726562zm-2.070312 47.929687c-8.839844 0-16-7.164062-16-16 0-8.839844 7.160156-16 16-16 8.835937 0 16 7.160156 16 16 0 8.835938-7.164063 16-16 16zm0 0"/><path d="m400.183594 185.378906h16v16h-16zm0 0"/><path d="m384.183594 249.378906h16v16h16v-24c0-4.417968 3.578125-8 8-8h16v-16h-44l-36 48h24zm0 0"/><path d="m336.183594 241.378906h-8v-40c0-4.417968-3.582032-8-8-8-4.421875 0-8 3.582032-8 8v40h-8v24h32zm0 0"/><path d="m432.183594 337.378906v8h16v-16h-16zm0 0"/><path d="m240.183594 201.378906h40v-48h-112v48zm8.636718-27.042968c.730469-2.007813 2.3125-3.589844 4.320313-4.320313 2.980469-1.25 6.421875-.589844 8.722656 1.683594.722657.761719 1.292969 1.660156 1.679688 2.636719 1.273437 2.996093.605469 6.46875-1.691407 8.777343-2.296874 2.308594-5.761718 2.996094-8.765624 1.734375-3.003907-1.257812-4.941407-4.214844-4.902344-7.46875-.03125-1.050781.191406-2.09375.636718-3.042968zm-32 0c.40625-.96875.976563-1.859376 1.679688-2.636719 3.210938-2.960938 8.152344-2.960938 11.363281 0 .703125.777343 1.273438 1.667969 1.679688 2.636719 1.453125 3.523437.21875 7.582031-2.949219 9.703124-3.167969 2.117188-7.390625 1.707032-10.09375-.980468-.703125-.78125-1.269531-1.671875-1.679688-2.640625-.851562-1.9375-.851562-4.144531 0-6.082031zm-18.957031 8.722656c-2.703125 2.6875-6.925781 3.097656-10.09375.980468-3.167969-2.121093-4.402343-6.179687-2.949219-9.703124.367188-.988282.941407-1.886719 1.679688-2.636719.378906-.34375.777344-.664063 1.195312-.960938.449219-.300781.933594-.542969 1.445313-.722656.453125-.230469.941406-.390625 1.441406-.476563 2.632813-.539062 5.363281.273438 7.28125 2.160157.722657.761719 1.292969 1.660156 1.679688 2.636719 1.273437 2.976562.609375 6.429687-1.679688 8.722656zm0 0"/><path d="m424.980469 393.457031-12.125-14.917969v-30.671874l3.328125-2.488282v-64h-184v-40h-16v40h-80v59.6875l-11.25 5c-2.890625 1.28125-4.753906 4.148438-4.75 7.3125v32h16v-26.808594l29.695312-13.191406h87.550782l80.046874 23.542969c-.167968.976563-.265624 1.960937-.292968 2.953125.011718 1.257812.140625 2.511719.375 3.75l-36.304688 30.105469c-10.390625-13.679688-29.363281-17.429688-44.175781-8.742188-14.8125 8.691407-20.792969 27.085938-13.921875 42.828125 6.867188 15.738282 24.421875 23.863282 40.867188 18.910156 16.445312-4.953124 26.59375-21.414062 23.628906-38.332031l38.457031-31.128906c5.988281 4.371094 13.8125 5.328125 20.675781 2.527344 6.863282-2.800781 11.785156-8.960938 13.003906-16.273438l21.03125-15.703125v24.402344l11.144532 13.710938c-13.664063 8.125-19.261719 25.074218-13.117188 39.738281 6.144532 14.667969 22.148438 22.566406 37.527344 18.527343 15.375-4.042968 25.429688-18.792968 23.570312-34.582031-1.863281-15.789062-15.066406-27.800781-30.964843-28.15625zm-224.796875-56.078125c-3.660156-.027344-7.261719-.894531-10.53125-2.539062l-.152344.066406 11.257812-5.007812 12.382813 3.648437c-3.859375 2.5-8.359375 3.828125-12.957031 3.832031zm23.023437-17.601562-15.410156-4.535156c.207031-.605469.335937-1.230469.386719-1.863282 0-4.417968-3.582032-8-8-8-4.421875 0-8 3.582032-8 8 .027344.878906.203125 1.746094.519531 2.566406l-14.707031 6.535157c-4.191406-9.753907-1.496094-21.105469 6.632812-27.933594 8.132813-6.832031 19.777344-7.527344 28.660156-1.714844 8.886719 5.8125 12.917969 16.757813 9.917969 26.945313zm48.976563 121.601562c-8.839844 0-16-7.164062-16-16 0-8.839844 7.160156-16 16-16 8.835937 0 16 7.160156 16 16 0 8.835938-7.164063 16-16 16zm96-128h16v-16h16v24c0 4.417969-3.582032 8-8 8h-24zm-48 0h16v-16h16v24c0 4.417969-3.582032 8-8 8h-24zm-16 8c0 4.417969-3.582032 8-8 8h-24v-16h16v-16h16zm68.292968 38.445313c-3.996093-5.90625-10.664062-9.445313-17.800781-9.445313-4.621093.015625-9.117187 1.535156-12.796875 4.335938l-31.746094-9.335938h83.199219zm51.707032 81.554687c-8.839844 0-16-7.164062-16-16 0-8.839844 7.160156-16 16-16 8.835937 0 16 7.160156 16 16 0 8.835938-7.164063 16-16 16zm0 0"/><path d="m216.183594 105.378906h16v16h-16zm0 0"/><path d="m108.09375 240.777344c2.195312.667968 4.523438.78125 6.777344.328125l31.199218 37.398437 12.304688-10.253906-31.203125-37.410156c2.242187-6.011719.675781-12.78125-3.980469-17.195313-4.65625-4.417969-11.5-5.621093-17.386718-3.066406-5.882813 2.558594-9.671876 8.382813-9.621094 14.800781.015625 1.382813.21875 2.757813.597656 4.085938l-23.359375 23.359375-3.457031-3.445313-56.984375 57 3.449219 3.453125-13.902344 13.890625c-2.082032 2.007813-2.914063 4.980469-2.183594 7.777344.734375 2.796875 2.917969 4.984375 5.714844 5.714844 2.796875.730468 5.769531-.101563 7.777344-2.179688l13.890624-13.890625 4.230469 4.234375 47.503907-47.503906c2.535156-2.503906 3.953124-5.921875 3.9375-9.480469 0-.890625-.085938-1.777343-.257813-2.648437zm0 0"/></svg>